<svg xmlns="http://www.w3.org/2000/svg" xmlns:xlink="http://www.w3.org/1999/xlink" version="1.1" width="256" height="256" viewBox="0 0 256 256" xml:space="preserve">
<g style="stroke: none; stroke-width: 0; stroke-dasharray: none; stroke-linecap: butt; stroke-linejoin: miter; stroke-miterlimit: 10; fill: none; fill-rule: nonzero; opacity: 1;" transform="translate(14.175 14.175) scale(2.53 2.53)">
	<path d="M 45 0 L 45 0 C 20.147 0 0 20.147 0 45 v 0 c 0 24.853 20.147 45 45 45 h 0 c 24.853 0 45 -20.147 45 -45 v 0 C 90 20.147 69.853 0 45 0 z M 65.484 61.059 c -1.125 0.136 -4.381 -5.151 -4.381 -5.151 c 0 3.062 -1.578 7.055 -4.989 9.94 c 1.277 0.393 2.842 0.997 3.849 1.741 c 0.903 0.666 0.79 1.346 0.627 1.62 c -0.714 1.206 -12.257 0.77 -15.589 0.395 c -3.332 0.375 -14.875 0.811 -15.589 -0.395 c -0.163 -0.274 -0.276 -0.954 0.628 -1.62 c 1.006 -0.743 2.57 -1.347 3.847 -1.74 c -3.411 -2.885 -4.99 -6.879 -4.99 -9.941 c 0 0 -3.255 5.286 -4.38 5.15 c -0.524 -0.063 -1.213 -2.895 0.913 -9.737 c 0.446 -1.434 1.054 -3.108 1.671 -4.715 l 0.001 0 c 0 0 -0.001 0 -0.001 0 l 2.25 -5.615 c 0 0 0.001 0 0.001 0 l -0.001 0 c -0.002 -0.065 -0.03 -1.17 -0.03 -1.741 C 29.32 29.649 33.853 20 45 20 c 11.147 0 15.68 9.649 15.68 19.252 c 0 0.57 -0.028 1.675 -0.029 1.741 l 2.25 5.615 c 0 0 -0.001 0 -0.001 0 l 0.001 0 c 0.616 1.607 1.225 3.28 1.671 4.715 C 66.697 58.164 66.008 60.996 65.484 61.059 z" style="stroke: none; stroke-width: 1; stroke-dasharray: none; stroke-linecap: butt; stroke-linejoin: miter; stroke-miterlimit: 10; fill: rgb(255,255,255); fill-rule: nonzero; opacity: 1;" transform=" matrix(1 0 0 1 0 0) " stroke-linecap="round"/>
</g>
</svg>
